<?xml version="1.0" encoding="utf-8"?>
<!-- Generator: Adobe Illustrator 17.0.0, SVG Export Plug-In . SVG Version: 6.00 Build 0)  -->
<!DOCTYPE svg PUBLIC "-//W3C//DTD SVG 1.1//EN" "http://www.w3.org/Graphics/SVG/1.1/DTD/svg11.dtd">
<svg version="1.1" id="Layer_1" xmlns="http://www.w3.org/2000/svg" xmlns:xlink="http://www.w3.org/1999/xlink" x="0px" y="0px"
	 width="900px" height="700px" viewBox="0 0 900 700" enable-background="new 0 0 900 700" xml:space="preserve">
<g>
	<g>
		<g>
			<path fill="#26A9E0" d="M293.819,437.071c-1.325-2.208-4.969-4.306-9.165-4.306c-5.411,0-8.005,2.263-8.005,5.134
				c0,3.368,3.975,4.306,8.613,4.859c8.061,0.994,15.57,3.092,15.57,12.312c0,8.613-7.62,12.312-16.232,12.312
				c-7.895,0-13.968-2.429-16.84-9.497l6.074-3.147c1.711,4.251,6.183,6.128,10.876,6.128c4.583,0,8.89-1.601,8.89-5.797
				c0-3.644-3.81-5.135-8.945-5.687c-7.895-0.939-15.183-3.037-15.183-11.705c0-7.951,7.84-11.208,14.963-11.263
				c6.018,0,12.257,1.711,15.183,7.674L293.819,437.071z"/>
			<path fill="#26A9E0" d="M324.683,455.015h-10.932v11.374h-7.288V427.74c6.073,0,12.146-0.055,18.22-0.055
				C343.566,427.685,343.621,455.015,324.683,455.015z M313.751,448.334h10.932c9.331,0,9.275-13.693,0-13.693h-10.932V448.334z"/>
			<path fill="#26A9E0" d="M381.774,447.285c-0.11,9.993-6.239,19.986-19.821,19.986c-13.582,0-19.876-9.772-19.876-19.931
				s6.515-20.374,19.876-20.374C375.259,426.967,381.884,437.181,381.774,447.285z M349.254,447.451
				c0.166,6.349,3.589,13.14,12.699,13.14c9.11,0,12.534-6.846,12.644-13.195c0.11-6.515-3.534-13.803-12.644-13.803
				C352.842,433.593,349.088,440.936,349.254,447.451z"/>
			<path fill="#26A9E0" d="M421.417,466.389h-8.669l-11.263-12.92h-7.012v12.92h-7.288v-38.704c6.128,0,12.257,0.055,18.386,0.055
				c9.11,0.056,13.913,6.129,13.913,12.81c0,5.3-2.429,10.656-9.772,12.146l11.705,13.195V466.389z M394.473,434.531v12.368h11.098
				c4.638,0,6.626-3.092,6.626-6.184c0-3.092-2.043-6.183-6.626-6.183H394.473z"/>
			<path fill="#26A9E0" d="M436.103,434.365h-12.257v-6.626c11.153,0,20.595,0,31.802,0v6.626h-12.257v32.023h-7.288V434.365z"/>
			<path fill="#26A9E0" d="M483.917,437.071c-1.325-2.208-4.969-4.306-9.165-4.306c-5.411,0-8.005,2.263-8.005,5.134
				c0,3.368,3.975,4.306,8.613,4.859c8.061,0.994,15.57,3.092,15.57,12.312c0,8.613-7.62,12.312-16.232,12.312
				c-7.895,0-13.968-2.429-16.84-9.497l6.074-3.147c1.711,4.251,6.183,6.128,10.876,6.128c4.583,0,8.89-1.601,8.89-5.797
				c0-3.644-3.81-5.135-8.945-5.687c-7.895-0.939-15.183-3.037-15.183-11.705c0-7.951,7.84-11.208,14.963-11.263
				c6.018,0,12.257,1.711,15.183,7.674L483.917,437.071z"/>
			<path fill="#5E5E5E" d="M536.426,437.181c-2.595-2.485-6.46-3.865-9.828-3.865c-8.282,0-13.306,6.294-13.306,14.245
				c0,6.349,3.7,12.92,13.306,12.92c3.037,0,5.687-0.663,8.724-3.092v-6.846h-9.883v-6.515h16.564v16.288
				c-3.81,4.362-8.614,6.956-15.404,6.956c-14.521,0-20.429-9.552-20.429-19.711c0-10.876,6.791-20.925,20.429-20.925
				c5.19,0,10.38,1.988,14.355,5.908L536.426,437.181z"/>
			<path fill="#5E5E5E" d="M548.021,466.389V427.74h7.232v38.649H548.021z"/>
			<path fill="#5E5E5E" d="M596.387,466.389h-8.669l-11.263-12.92h-7.012v12.92h-7.288v-38.704c6.128,0,12.257,0.055,18.386,0.055
				c9.11,0.056,13.913,6.129,13.913,12.81c0,5.3-2.429,10.656-9.772,12.146l11.705,13.195V466.389z M569.443,434.531v12.368h11.098
				c4.638,0,6.626-3.092,6.626-6.184c0-3.092-2.043-6.183-6.626-6.183H569.443z"/>
			<path fill="#5E5E5E" d="M599.424,466.389V427.74h7.232v38.649H599.424z"/>
		</g>
	</g>
	<g>
		<path fill="#26A9E0" d="M354.258,295.829c10.456,5.288,22.268,6.671,33.382,10.04c8.684,2.523,18.281,4.859,24.496,11.946
			c0.913-9.879,3.141-19.61,7.356-28.617c-13.959-5.53-28.939-7.973-43.18-12.657c-4.711-1.745-10-4.537-11.463-9.718
			c-1.785-7.624,4.658-14.993,11.973-16.147c8.617-1.624,18.295-1.382,25.825,3.597c5.49,3.181,5.973,11.261,12.456,13.248
			c6.443,1.839,13.302,0.671,19.919,0.993c-0.161-12.872-6.094-26.174-17.342-33.019c-11.906-7.396-26.549-7.517-40.093-6.59
			c-11.785,1.074-24.389,5.168-31.65,15.1c-5.933,7.557-7.342,17.637-6.604,26.979C340.205,280.863,345.09,291.172,354.258,295.829z
			"/>
		<path fill="#26A9E0" d="M534.991,323.788c-17.342,0.107-34.67,0.054-51.998,0.027c-0.228,6.134-1.034,13.503,3.946,18.12
			c6.55,5.933,16.147,2.483,24.107,3.396c-1.262,10.792-8.08,21.543-18.818,24.899c-12.496,3.986-28.12,1.544-36.603-9.168
			c-6.537-7.758-9.033-17.959-9.664-27.865c-2.658,11.422-10.376,21.811-21.61,25.945c5.933,15.033,18.107,28.16,33.851,32.858
			c12.684,3.879,26.764,4.161,39.274-0.51c6.913-2.55,12.04-8.04,16.778-13.449c1.262,4,1.933,8.751,5.463,11.49
			c4.429,3.221,10.134,2.336,15.275,2.564C535.353,369.33,535.353,346.539,534.991,323.788z"/>
		<path fill="#5E5E5E" d="M443.275,320.446c-1.127-15.677,8.282-33.623,24.644-36.898c10.845-2.188,24.04-0.698,31.476,8.362
			c3.195,3.664,5.02,9.235,10.389,10.295c7.181,1.181,14.55,0.148,21.785,0.577c-1.839-9.691-5.503-19.395-12.563-26.523
			c-11.624-12.979-30.106-16.872-46.844-16.456c-16.053,0.295-32.241,7.208-42.281,19.972
			c-10.604,12.778-14.161,29.838-14.134,46.093c-0.161,2.161,0.403,4.47-0.43,6.55c-3.624,4.752-9.892,6.04-15.503,6.671
			c-9.047,0.752-18.912-0.349-26.187-6.228c-4.161-3.503-5.664-8.98-6.711-14.08c-8.577,0.094-17.154,0.027-25.717,0.04
			c0.711,10.98,4.04,22.536,12.671,29.945c9.543,9.382,23.503,11.879,36.375,12.322c13.221,0.201,27.248-1.382,38.455-8.98
			C438.712,345.076,443.812,332.486,443.275,320.446z"/>
	</g>
</g>
</svg>
